<svg width="165" height="32" viewBox="0 0 165 32" fill="none" xmlns="http://www.w3.org/2000/svg">
<rect width="19.0612" height="19.0613" transform="matrix(0.717251 0.696815 -0.696748 0.717316 13.2809 4.66489)" fill="#FF6A00"/>
<rect width="19.0612" height="19.0613" transform="matrix(0.717251 0.696815 -0.696748 0.717316 13.3283 0.380005)" fill="#FF6A00"/>
<rect width="13.1134" height="13.1135" transform="matrix(0.717251 0.696815 -0.696748 0.717316 13.6592 4.52405)" fill="white"/>
<rect width="9.52976" height="9.33167" transform="matrix(0.717251 0.696815 -0.696748 0.717316 13.6948 4.91495)" fill="#FF6A00"/>
<path d="M35.5583 24V8.37862H37.9015V24H35.5583ZM40.826 24V12.641H43.0576V13.8015C43.9354 12.8791 45.0735 12.4179 46.472 12.4179C47.3497 12.4179 48.1159 12.6038 48.7705 12.9758C49.44 13.3477 49.9607 13.8684 50.3327 14.5379C50.7195 15.2074 50.9129 15.981 50.9129 16.8588V24H48.6813V17.2382C48.6813 16.3455 48.4284 15.6463 47.9225 15.1404C47.4316 14.6197 46.7398 14.3594 45.8471 14.3594C45.252 14.3594 44.7164 14.4858 44.2403 14.7388C43.7643 14.9917 43.37 15.3562 43.0576 15.8322V24H40.826ZM57.3932 24.2232C56.4112 24.2232 55.4888 24.0818 54.6259 23.7992C53.7779 23.5016 53.0415 23.085 52.4166 22.5494L53.644 21.0766C54.2242 21.5378 54.8193 21.8948 55.4293 22.1478C56.0542 22.3858 56.6865 22.5048 57.3262 22.5048C58.1296 22.5048 58.7842 22.3486 59.29 22.0362C59.7959 21.7237 60.0488 21.3146 60.0488 20.8088C60.0488 20.3922 59.9 20.0649 59.6025 19.8269C59.3049 19.5888 58.8437 19.4252 58.2189 19.3359L56.1658 19.0458C55.0351 18.8821 54.1871 18.5325 53.6217 17.9969C53.0564 17.4613 52.7737 16.7472 52.7737 15.8546C52.7737 15.1702 52.9597 14.5751 53.3316 14.0693C53.7035 13.5486 54.2242 13.1469 54.8937 12.8642C55.5632 12.5666 56.3443 12.4179 57.2369 12.4179C58.0552 12.4179 58.8437 12.5369 59.6025 12.7749C60.3612 13.013 61.0902 13.3849 61.7895 13.8907L60.6513 15.3636C60.0265 14.947 59.4165 14.642 58.8214 14.4486C58.2412 14.2552 57.6535 14.1585 57.0584 14.1585C56.374 14.1585 55.8236 14.3073 55.407 14.6049C54.9904 14.8875 54.7822 15.2595 54.7822 15.7207C54.7822 16.1372 54.9235 16.4645 55.2062 16.7026C55.5037 16.9257 55.9872 17.082 56.6567 17.1712L58.7098 17.4613C59.8405 17.625 60.696 17.9746 61.2762 18.5102C61.8564 19.0309 62.1465 19.7376 62.1465 20.6302C62.1465 21.3146 61.9382 21.932 61.5217 22.4825C61.1051 23.0181 60.5398 23.4421 59.8256 23.7545C59.1115 24.0669 58.3007 24.2232 57.3932 24.2232ZM63.8614 24V12.641H66.093V24H63.8614ZM64.9772 10.8111C64.6053 10.8111 64.2854 10.6772 64.0176 10.4094C63.7498 10.1267 63.6159 9.79942 63.6159 9.42748C63.6159 9.04067 63.7498 8.7208 64.0176 8.46789C64.2854 8.20009 64.6053 8.06619 64.9772 8.06619C65.364 8.06619 65.6913 8.20009 65.9591 8.46789C66.2269 8.7208 66.3608 9.04067 66.3608 9.42748C66.3608 9.79942 66.2269 10.1267 65.9591 10.4094C65.6913 10.6772 65.364 10.8111 64.9772 10.8111ZM73.9433 24.1785C72.887 24.1785 71.9199 23.9182 71.0422 23.3975C70.1644 22.8767 69.4726 22.1775 68.9668 21.2997C68.4609 20.4071 68.208 19.4103 68.208 18.3094C68.208 17.2084 68.4609 16.2191 68.9668 15.3413C69.4875 14.4635 70.1867 13.7643 71.0645 13.2436C71.9423 12.7229 72.9167 12.4625 73.9879 12.4625C74.6128 12.4625 75.2153 12.5592 75.7955 12.7526C76.3757 12.946 76.9113 13.2287 77.4023 13.6006V8.37862L79.6339 7.95461V24H77.4246V22.9065C76.4576 23.7545 75.2971 24.1785 73.9433 24.1785ZM74.2334 22.237C74.888 22.237 75.4831 22.118 76.0187 21.88C76.5692 21.6419 77.0304 21.2997 77.4023 20.8534V15.743C77.0304 15.3264 76.5692 14.9991 76.0187 14.7611C75.4831 14.5082 74.888 14.3817 74.2334 14.3817C73.5193 14.3817 72.8721 14.5528 72.2919 14.895C71.7117 15.2371 71.2504 15.7058 70.9083 16.3009C70.5661 16.8811 70.395 17.5432 70.395 18.287C70.395 19.0309 70.5661 19.7004 70.9083 20.2955C71.2504 20.8906 71.7117 21.3667 72.2919 21.7237C72.8721 22.0659 73.5193 22.237 74.2334 22.237ZM87.7218 24.2008C86.606 24.2008 85.5943 23.9405 84.6868 23.4198C83.7942 22.8991 83.08 22.1924 82.5444 21.2997C82.0237 20.4071 81.7634 19.4103 81.7634 18.3094C81.7634 17.2233 82.0163 16.2414 82.5221 15.3636C83.028 14.471 83.7123 13.7643 84.5752 13.2436C85.4381 12.708 86.3977 12.4402 87.454 12.4402C88.5103 12.4402 89.4476 12.708 90.2659 13.2436C91.0841 13.7643 91.7313 14.4784 92.2074 15.3859C92.6983 16.2786 92.9438 17.2902 92.9438 18.4209V19.0458H83.995C84.114 19.6706 84.3446 20.2286 84.6868 20.7195C85.0439 21.2105 85.4902 21.5973 86.0258 21.88C86.5763 22.1626 87.1714 22.304 87.8111 22.304C88.3616 22.304 88.8897 22.2221 89.3955 22.0585C89.9163 21.88 90.3477 21.627 90.6899 21.2997L92.1181 22.7057C91.4486 23.2115 90.7568 23.5909 90.0427 23.8438C89.3435 24.0818 88.5698 24.2008 87.7218 24.2008ZM84.0173 17.3721H90.7345C90.6453 16.777 90.437 16.2563 90.1097 15.8099C89.7972 15.3487 89.403 14.9917 88.9269 14.7388C88.4657 14.471 87.9599 14.3371 87.4094 14.3371C86.844 14.3371 86.3233 14.4635 85.8473 14.7164C85.3712 14.9694 84.9695 15.3264 84.6422 15.7876C84.3298 16.2339 84.1215 16.7621 84.0173 17.3721ZM95.3371 24V8.37862H98.4837L103.371 18.3763L108.258 8.37862H111.382V24H109.173V11.2351L103.349 22.8842L97.5241 11.2351V24H95.3371ZM117.666 24.2008C116.848 24.2008 116.126 24.0595 115.501 23.7768C114.876 23.4793 114.385 23.0702 114.028 22.5494C113.671 22.0287 113.493 21.4262 113.493 20.7418C113.493 19.6706 113.902 18.8301 114.72 18.2201C115.538 17.5952 116.662 17.2828 118.09 17.2828C119.206 17.2828 120.24 17.4985 121.192 17.93V16.7249C121.192 15.9066 120.954 15.2967 120.478 14.895C120.017 14.4933 119.332 14.2924 118.425 14.2924C117.904 14.2924 117.361 14.3743 116.796 14.5379C116.23 14.6867 115.598 14.9247 114.899 15.252L114.073 13.5783C114.936 13.1766 115.739 12.8865 116.483 12.708C117.227 12.5146 117.978 12.4179 118.737 12.4179C120.21 12.4179 121.348 12.7675 122.151 13.4667C122.97 14.166 123.379 15.1628 123.379 16.4571V24H121.192V23.0181C120.686 23.4198 120.143 23.7173 119.563 23.9107C118.983 24.1041 118.35 24.2008 117.666 24.2008ZM115.635 20.6972C115.635 21.2477 115.866 21.694 116.327 22.0362C116.803 22.3635 117.42 22.5271 118.179 22.5271C118.774 22.5271 119.317 22.4453 119.808 22.2816C120.314 22.1031 120.775 21.8279 121.192 21.4559V19.5367C120.76 19.2838 120.307 19.1053 119.831 19.0012C119.369 18.8821 118.849 18.8226 118.268 18.8226C117.45 18.8226 116.803 18.9937 116.327 19.3359C115.866 19.6632 115.635 20.117 115.635 20.6972ZM125.95 24V12.641H128.182V14.0916C128.539 13.556 128.978 13.1394 129.499 12.8419C130.034 12.5294 130.637 12.3732 131.306 12.3732C131.767 12.3881 132.147 12.4551 132.444 12.5741V14.5825C132.236 14.4933 132.02 14.4338 131.797 14.404C131.574 14.3594 131.351 14.3371 131.128 14.3371C130.473 14.3371 129.893 14.5156 129.387 14.8727C128.881 15.2148 128.479 15.7207 128.182 16.3902V24H125.95ZM134.232 24V8.37862L136.463 7.95461V17.6176L141.975 12.641H144.586L138.717 17.9523L144.899 24H141.953L136.463 18.6664V24H134.232ZM150.377 24.2008C149.262 24.2008 148.25 23.9405 147.342 23.4198C146.45 22.8991 145.736 22.1924 145.2 21.2997C144.679 20.4071 144.419 19.4103 144.419 18.3094C144.419 17.2233 144.672 16.2414 145.178 15.3636C145.683 14.471 146.368 13.7643 147.231 13.2436C148.094 12.708 149.053 12.4402 150.11 12.4402C151.166 12.4402 152.103 12.708 152.921 13.2436C153.74 13.7643 154.387 14.4784 154.863 15.3859C155.354 16.2786 155.599 17.2902 155.599 18.4209V19.0458H146.651C146.77 19.6706 147 20.2286 147.342 20.7195C147.699 21.2105 148.146 21.5973 148.681 21.88C149.232 22.1626 149.827 22.304 150.467 22.304C151.017 22.304 151.545 22.2221 152.051 22.0585C152.572 21.88 153.003 21.627 153.345 21.2997L154.774 22.7057C154.104 23.2115 153.412 23.5909 152.698 23.8438C151.999 24.0818 151.225 24.2008 150.377 24.2008ZM146.673 17.3721H153.39C153.301 16.777 153.092 16.2563 152.765 15.8099C152.453 15.3487 152.058 14.9917 151.582 14.7388C151.121 14.471 150.615 14.3371 150.065 14.3371C149.5 14.3371 148.979 14.4635 148.503 14.7164C148.027 14.9694 147.625 15.3264 147.298 15.7876C146.985 16.2339 146.777 16.7621 146.673 17.3721ZM162.263 24.2008C161.162 24.2008 160.321 23.9479 159.741 23.4421C159.161 22.9214 158.871 22.1701 158.871 21.1882V14.5156H156.461V12.641H158.871V9.73991L161.08 9.20432V12.641H164.427V14.5156H161.08V20.6749C161.08 21.2551 161.207 21.6717 161.459 21.9246C161.727 22.1626 162.159 22.2816 162.754 22.2816C163.066 22.2816 163.341 22.2593 163.579 22.2147C163.832 22.1701 164.1 22.1031 164.383 22.0139V23.8884C164.085 23.9926 163.736 24.0669 163.334 24.1116C162.947 24.1711 162.59 24.2008 162.263 24.2008Z" fill="#FF6A00"/>
</svg>
